<?xml version="1.0" standalone="no"?>
<!DOCTYPE svg PUBLIC "-//W3C//DTD SVG 20010904//EN"
 "http://www.w3.org/TR/2001/REC-SVG-20010904/DTD/svg10.dtd">
<svg version="1.0" xmlns="http://www.w3.org/2000/svg"
 width="900.000000pt" height="680.000000pt" viewBox="0 0 900.000000 680.000000"
 preserveAspectRatio="xMidYMid meet">

<g transform="translate(0.000000,680.000000) scale(0.100000,-0.100000)"
fill="#000000" stroke="none">
<path d="M3158 6495 l-3 -65 -37 30 c-48 40 -49 27 -1 -22 l36 -37 -39 -50
c-496 -627 -795 -1019 -1249 -1631 -252 -341 -245 -331 -223 -310 8 8 114 146
235 305 256 337 512 669 958 1243 l320 411 6 -287 c8 -370 11 -1452 4 -1452
-3 0 -28 11 -55 25 -62 32 -65 25 -5 -11 25 -14 45 -30 43 -34 -2 -4 -75 -64
-163 -133 -88 -69 -344 -275 -569 -456 -225 -182 -412 -329 -414 -326 -3 3
-11 -4 -19 -15 -8 -11 -63 -58 -123 -106 -61 -47 -110 -88 -110 -91 0 -2 39
26 88 63 48 37 99 77 114 88 52 41 100 79 643 512 303 242 556 443 563 447 9
6 12 -3 12 -35 0 -39 -4 -46 -33 -64 -18 -10 -259 -189 -535 -397 -277 -208
-511 -381 -520 -384 -9 -4 -23 -15 -30 -25 -7 -10 -20 -18 -28 -18 -8 0 -14
-4 -14 -9 0 -5 -94 -79 -209 -164 -247 -183 -261 -193 -261 -178 0 21 -19 11
-22 -11 -2 -17 -11 -24 -31 -26 l-27 -3 5 313 c3 172 7 393 10 491 3 117 2
176 -5 172 -6 -3 -10 -16 -10 -29 0 -12 -5 -27 -12 -34 -7 -7 -8 -16 -1 -24 6
-8 7 -179 4 -463 -3 -247 -4 -463 -2 -480 4 -29 4 -30 10 -5 4 14 14 26 23 28
14 3 15 -15 11 -170 -5 -201 -7 -218 -31 -218 -9 0 -28 -9 -42 -20 l-25 -20
24 0 c23 0 23 -2 19 -74 -2 -41 -6 -77 -9 -80 -6 -6 -536 20 -624 31 -33 4
-77 6 -99 4 -24 -2 -42 2 -47 11 -8 11 -10 11 -18 -1 -12 -18 -58 -7 -64 17
-4 16 -5 16 -6 0 -2 -26 -29 -22 -34 5 l-4 22 -2 -22 c-1 -17 -7 -23 -26 -23
-23 0 -25 4 -26 43 l-2 42 -6 -40 c-5 -36 -9 -40 -31 -37 -14 2 -40 3 -58 3
l-32 -1 -1 63 c-1 53 -3 57 -9 27 -5 -23 -8 -27 -9 -12 -2 43 -21 21 -21 -26
l0 -47 -45 3 c-28 3 -45 0 -45 -7 0 -6 19 -11 45 -11 l45 0 -2 -197 -3 -198
-152 -3 c-127 -2 -153 -5 -153 -17 0 -13 25 -15 153 -15 l152 0 -3 -395 -2
-395 -103 -1 c-56 0 -124 -4 -152 -9 -37 -5 -11 -8 102 -9 l152 -1 4 -28 4
-27 2 28 c1 23 5 27 30 27 16 0 32 -6 35 -12 3 -9 8 -8 16 5 16 24 27 16 110
-88 40 -49 87 -106 106 -125 l33 -35 6 -279 c3 -154 8 -282 10 -285 3 -2 5
117 5 265 l0 269 91 -90 c50 -50 126 -129 170 -177 l79 -88 2 -72 1 -73 6 65
6 64 27 -33 c27 -31 28 -38 28 -137 0 -71 4 -104 11 -104 9 0 10 28 6 98 l-5
97 51 -60 c195 -225 547 -591 547 -569 0 7 -7 18 -17 25 -19 17 -431 473 -521
577 -34 40 -62 77 -62 83 0 6 -4 8 -9 5 -5 -3 -20 9 -34 27 -13 17 -38 46 -53
62 -16 17 -99 107 -184 200 -85 92 -181 197 -213 231 l-57 63 52 5 c29 3 154
11 278 17 124 6 230 15 235 19 6 4 57 11 115 14 161 10 600 45 643 51 l37 5 0
-40 c0 -22 5 -40 10 -40 6 0 10 16 10 35 0 22 6 38 18 44 16 10 16 10 0 11
-14 0 -18 9 -18 41 0 32 3 40 14 36 8 -3 34 -11 58 -17 24 -7 109 -31 190 -55
211 -63 499 -137 506 -131 3 3 -3 6 -14 6 -16 0 -17 2 -4 10 11 8 7 9 -14 4
-18 -4 -27 -3 -23 3 4 6 -3 8 -18 5 -16 -3 -25 0 -25 8 0 7 -8 10 -20 7 -13
-3 -18 -1 -13 6 4 6 -2 8 -15 5 -12 -4 -20 -2 -16 3 3 5 -5 9 -18 8 -21 0
-272 64 -354 91 -33 11 -35 15 -32 48 3 32 7 37 31 40 23 3 27 0 27 -23 0 -15
4 -24 10 -20 5 3 10 17 10 31 0 31 27 32 40 2 7 -18 9 -19 9 -5 1 9 3 17 6 17
3 0 60 -16 126 -35 66 -19 184 -47 262 -62 77 -14 134 -29 124 -32 -9 -3 23
-6 71 -6 48 -1 78 1 67 3 -45 9 -31 20 54 46 l90 28 143 -41 c79 -22 162 -45
186 -51 31 -8 43 -16 41 -28 -1 -9 -1 -24 0 -32 1 -12 4 -12 12 3 5 9 7 22 4
27 -3 6 3 10 15 10 12 0 18 -5 15 -10 -4 -6 7 -9 27 -8 18 1 49 -1 68 -5 22
-4 28 -4 15 2 l-20 8 20 6 c18 6 309 46 443 62 52 6 52 5 53 -22 l1 -28 7 30
6 30 209 26 c115 15 237 30 272 34 l63 6 4 -43 4 -43 1 45 2 45 213 28 c247
32 247 32 248 10 0 -11 3 -13 6 -5 7 17 40 15 47 -4 3 -9 7 -95 8 -192 l2
-177 3 152 c3 145 5 153 23 153 19 0 20 -8 20 -229 0 -215 -1 -230 -19 -236
-10 -3 -26 -2 -36 1 -13 5 -16 2 -13 -12 2 -15 12 -19 41 -19 l37 0 6 245 c3
135 8 248 12 251 7 7 157 29 193 29 12 0 19 -9 22 -28 l4 -27 2 28 c1 18 6 27
19 27 14 0 15 2 2 10 -12 8 -10 10 8 10 13 0 20 -4 17 -10 -3 -6 -2 -10 4 -10
5 0 11 4 13 9 2 5 54 5 128 0 263 -19 456 -32 477 -31 18 0 23 -7 26 -37 l4
-36 1 38 2 38 53 -5 c68 -7 309 -20 324 -17 6 1 14 -11 16 -26 4 -27 4 -27 6
-3 l1 26 98 -3 c126 -5 140 -8 145 -36 l4 -22 2 23 c1 30 38 30 44 -1 l4 -22
2 23 c1 18 6 23 23 20 31 -4 35 -35 6 -47 -13 -5 -135 -42 -273 -81 -137 -40
-389 -114 -560 -165 -170 -51 -385 -114 -477 -141 -92 -26 -166 -49 -164 -52
7 -7 480 127 1426 401 l255 75 6 -32 6 -31 2 33 1 34 48 -6 c26 -3 97 -8 157
-11 185 -9 661 -35 825 -45 85 -6 169 -10 186 -10 24 0 33 -5 38 -22 l7 -23 9
21 c11 28 57 22 62 -9 5 -31 28 -34 28 -3 0 18 5 26 18 26 9 0 111 -7 227 -15
115 -7 214 -11 220 -7 17 11 -54 20 -253 33 -105 7 -196 15 -201 18 -4 4 -11
192 -15 418 l-6 413 29 0 c25 0 29 -4 35 -38 3 -20 6 -56 6 -79 0 -24 5 -43
10 -43 6 0 10 33 10 79 0 91 -5 85 100 96 111 11 108 27 -2 20 l-98 -7 0 25 0
24 158 7 c86 5 189 11 227 16 l70 7 -60 3 c-85 4 -237 1 -322 -6 l-73 -6 0 61
0 61 164 0 c177 0 256 7 256 23 0 6 -72 7 -210 2 l-209 -7 -3 814 c-3 698 -1
815 11 826 13 10 12 12 -2 12 -14 0 -17 12 -19 78 l-2 77 -3 -75 c-2 -41 -7
-78 -11 -82 -4 -3 -97 -25 -207 -47 -211 -44 -244 -51 -610 -131 -345 -76
-812 -201 -922 -247 -41 -17 -43 -17 -43 6 0 13 -7 18 -22 17 -22 -1 -23 3
-28 89 -3 50 -4 92 -3 94 2 2 12 -4 23 -14 11 -10 22 -16 25 -13 3 2 -8 17
-25 31 -25 22 -30 35 -30 71 0 24 -3 59 -7 77 -7 30 -9 25 -13 -34 l-5 -68
-290 278 c-159 153 -373 361 -475 463 -195 195 -660 672 -660 676 0 2 60 35
133 73 72 39 128 71 123 71 -5 0 -70 -29 -144 -65 l-135 -65 -56 53 c-79 75
-257 227 -265 227 -4 0 56 -68 133 -152 l141 -152 -58 -31 c-174 -96 -364
-195 -372 -195 -6 0 -10 6 -11 13 -1 6 -4 1 -8 -13 -4 -14 -14 -26 -22 -28 -8
-1 -118 81 -244 183 -127 103 -294 238 -372 301 -78 63 -248 209 -378 324
-130 115 -296 260 -370 322 l-133 113 50 62 c27 35 48 68 46 73 -2 6 -23 -15
-47 -45 -24 -30 -45 -54 -47 -52 -2 1 -4 28 -5 60 -3 78 -17 72 -21 -8z m222
-310 c101 -93 244 -211 376 -311 121 -91 410 -325 757 -612 l138 -115 -46 -30
c-60 -39 -50 -47 15 -11 70 38 74 31 71 -108 -3 -108 -12 -145 -33 -132 -5 3
-16 -3 -23 -14 -8 -10 -28 -25 -45 -32 -17 -7 -29 -15 -26 -17 2 -2 18 3 36
12 18 9 33 15 35 13 2 -2 1 -212 -2 -467 -6 -442 -7 -462 -25 -458 -10 3 -18
1 -18 -4 0 -25 -78 5 -401 157 -409 192 -888 407 -948 425 -22 7 -41 15 -41
19 0 7 56 50 65 50 4 0 54 -26 113 -59 169 -93 513 -263 817 -404 594 -274
510 -225 -329 193 l-679 338 154 122 c85 67 165 131 179 142 14 11 18 16 10
12 -8 -4 -85 -61 -171 -126 -86 -65 -158 -118 -160 -118 -2 0 -4 385 -4 855
l-1 854 66 -62 c36 -34 90 -85 120 -112z m1762 -927 c-4 -136 -13 -168 -49
-168 -8 0 -23 -9 -34 -19 -12 -11 -33 -22 -47 -26 -15 -4 -29 -10 -32 -14 -3
-4 -41 -25 -85 -47 -44 -21 -91 -46 -104 -56 -13 -10 -32 -18 -42 -18 -11 0
-19 -4 -19 -10 0 -5 -7 -10 -16 -10 -11 0 -14 5 -10 16 3 9 6 54 6 100 0 84 0
85 23 78 21 -6 21 -6 5 13 -21 22 -24 58 -6 70 14 10 401 220 408 222 3 1 4
-59 2 -131z m133 37 c44 -40 77 -75 75 -77 -31 -20 -73 -36 -84 -32 -7 3 -28
-9 -45 -26 -39 -36 -56 -38 -47 -7 3 12 6 31 6 41 0 18 2 18 28 -5 l27 -24
-27 31 c-25 27 -28 38 -28 102 0 40 3 72 8 72 4 0 43 -34 87 -75z m111 -106
c10 -12 93 -89 184 -172 91 -83 226 -210 300 -282 308 -299 473 -458 621 -598
l156 -147 -4 -53 c-7 -86 -12 -101 -28 -87 -8 7 -15 28 -15 46 0 19 -4 34 -10
34 -5 0 -10 -12 -10 -27 0 -25 0 -26 -20 -8 -16 14 -20 32 -21 79 l-1 61 -11
-47 -12 -47 -22 19 c-19 15 -23 28 -23 76 0 31 -3 54 -7 50 -5 -4 -9 -16 -9
-27 -1 -10 -2 -29 -3 -41 -1 -21 -2 -21 -31 7 -27 25 -30 35 -30 87 0 32 -4
58 -10 58 -5 0 -10 -20 -10 -45 0 -49 -4 -53 -32 -28 -14 12 -18 31 -18 79 0
35 -4 66 -10 69 -6 4 -10 -16 -10 -51 l0 -58 -30 29 c-27 25 -30 35 -30 87 0
32 -4 58 -10 58 -5 0 -10 -21 -10 -46 0 -40 -2 -45 -15 -34 -10 8 -15 31 -15
66 0 30 -4 54 -10 54 -5 0 -10 -18 -10 -40 0 -22 -3 -40 -7 -40 -4 0 -20 12
-35 27 -23 22 -28 35 -28 74 0 26 -4 51 -10 54 -6 4 -10 -11 -10 -36 l0 -43
-30 29 c-25 24 -30 37 -32 79 l-1 51 -4 -43 c-4 -36 -7 -42 -19 -31 -8 7 -15
32 -16 63 l-1 51 -4 -43 c-4 -43 -5 -44 -24 -26 -15 13 -19 30 -19 76 0 32 -4
58 -10 58 -5 0 -10 -21 -10 -47 l0 -47 -30 29 c-17 17 -30 40 -31 54 0 19 -2
22 -7 9 -6 -14 -11 -13 -39 13 -31 27 -33 32 -33 101 0 51 -3 68 -10 58 -5 -8
-10 -37 -10 -63 l0 -48 -30 33 c-16 18 -30 38 -30 45 0 7 -7 13 -16 13 -8 0
-78 62 -155 137 -100 98 -139 143 -139 160 0 13 -4 23 -10 23 -5 0 -10 -5 -10
-12 0 -7 -20 8 -45 32 -25 24 -45 47 -45 51 0 7 77 56 91 58 3 1 14 -9 25 -20z
m-151 -726 c-3 -373 -7 -777 -9 -898 -3 -121 -8 -349 -12 -506 l-7 -285 -28 4
c-17 3 -29 0 -29 -7 0 -6 -4 -11 -10 -11 -7 0 -10 328 -10 963 0 932 7 1389
20 1337 6 -23 7 -22 13 12 4 20 15 39 23 42 17 7 17 85 0 -1479 -3 -237 -1
-303 4 -205 4 80 11 494 15 920 7 721 10 788 32 790 1 0 0 -305 -2 -677z m115
296 c-6 -151 -14 -655 -17 -1121 l-6 -848 -21 -1 c-12 0 -34 -3 -50 -5 l-29
-5 7 148 c3 81 9 429 12 773 4 344 8 628 10 631 1 3 4 176 5 384 1 209 4 385
7 393 3 10 18 1 49 -30 l44 -45 -11 -274z m-234 -838 l1 -1159 -23 -5 c-13 -2
-26 -2 -28 1 -9 8 -7 558 5 1432 9 754 12 857 26 873 9 9 17 17 17 17 1 0 1
-522 2 -1159z m-55 708 c-6 -228 -11 -744 -11 -1146 l0 -733 -30 0 -30 0 0
1130 0 1130 38 19 c20 10 38 18 40 16 2 -2 -1 -189 -7 -416z m349 41 c-5 -162
-9 -649 -9 -1082 -1 -434 -4 -788 -8 -788 -5 0 -19 -3 -32 -7 l-24 -6 7 754
c4 415 9 777 11 804 1 28 6 174 9 325 4 151 9 288 12 304 6 28 7 28 24 10 17
-18 18 -37 10 -314z m-435 -805 l0 -1125 -42 -6 c-84 -12 -77 -123 -69 1054 8
1207 7 1147 24 1164 9 10 12 -187 12 -982 0 -546 2 -991 5 -988 3 3 6 449 5
991 l0 986 22 15 c12 9 27 16 33 16 7 0 10 -362 10 -1125z m477 -2 c2 -590 7
-1076 11 -1079 4 -4 7 -1 7 7 0 8 0 489 0 1069 l0 1055 25 -26 25 -25 4 -1078
4 -1078 -47 7 c-25 4 -49 9 -53 12 -13 7 -9 63 5 63 8 0 7 3 -3 10 -13 8 -15
99 -14 727 2 811 12 1429 24 1416 5 -4 10 -491 12 -1080z m-603 380 c-6 -378
-10 -875 -7 -1104 l5 -417 -65 -6 c-35 -4 -66 -5 -69 -3 -4 4 17 1809 21 1870
2 15 3 88 4 162 l2 134 32 17 31 16 -7 -198 c-10 -287 -26 -1381 -24 -1709 l1
-280 7 395 c4 217 11 586 14 820 4 234 11 549 16 700 8 241 11 276 26 287 10
7 19 11 22 9 2 -3 -2 -314 -9 -693z m-123 495 c-3 -73 -9 -294 -12 -490 l-7
-358 -30 0 -30 0 6 362 c4 199 7 415 7 480 0 100 2 118 16 118 12 0 14 -8 9
-47 -5 -35 -4 -44 4 -33 6 8 11 31 11 51 0 20 3 39 7 42 21 22 25 -2 19 -125z
m879 -1003 c0 -690 -3 -1045 -10 -1045 -5 0 -21 3 -34 7 l-24 6 6 1061 c3 584
6 1063 6 1066 1 2 13 -8 29 -23 l27 -27 0 -1045z m52 993 c6 -8 10 -407 11
-1030 l2 -1018 -25 0 -25 0 0 663 c0 742 10 1397 20 1397 4 0 12 -6 17 -12z
m88 -828 c-3 -404 -8 -848 -11 -986 l-6 -251 -24 5 -24 4 0 732 c0 402 3 856
7 1009 l6 278 29 -28 29 -28 -6 -735z m91 520 c-14 -321 -32 -1578 -22 -1569
3 3 11 291 16 640 5 349 12 725 16 837 l6 204 29 -28 28 -27 -4 -136 c-3 -75
-7 -197 -10 -271 -2 -74 -7 -429 -11 -788 -6 -557 -9 -652 -21 -647 -8 3 -21
5 -29 5 -11 0 -14 22 -16 103 l-2 102 -3 -97 c-4 -94 -5 -98 -26 -98 -12 0
-27 4 -34 8 -8 5 -9 140 -2 542 4 294 11 732 15 973 l6 439 35 -34 34 -33 -5
-125z m-2612 157 c17 -13 17 -14 -8 -30 l-26 -17 0 30 c0 33 7 37 34 17z m-32
-174 c0 -43 0 -207 -1 -365 -1 -286 -1 -288 -22 -288 -16 0 -19 4 -14 18 4 9
9 172 11 361 3 189 7 348 10 353 12 19 17 -3 16 -79z m46 57 c18 -10 175 -80
580 -260 l233 -104 -5 -45 c-3 -25 -7 -160 -8 -298 l-3 -253 -22 0 c-21 0 -23
5 -25 58 l-2 57 -3 -53 c-3 -44 -7 -52 -21 -48 -78 22 -302 89 -465 139 -240
73 -242 77 -102 148 50 25 119 60 154 78 34 18 61 35 58 37 -3 3 -68 -27 -146
-65 -77 -39 -143 -71 -146 -71 -2 0 -4 128 -3 285 0 157 -2 288 -5 292 -4 3
-7 -90 -7 -208 0 -118 -3 -251 -7 -297 -6 -79 -7 -84 -35 -98 -17 -9 -33 -13
-36 -9 -8 8 -15 725 -7 725 3 0 13 -4 23 -10z m-96 -385 l-5 -380 -216 -113
c-331 -172 -821 -415 -826 -410 -3 3 -2 119 1 259 l7 254 470 350 c258 193
482 358 498 368 l29 19 0 -313 c0 -172 2 -310 4 -308 2 2 6 146 8 319 2 265 5
317 18 327 8 6 15 11 16 10 0 -1 -1 -173 -4 -382z m2809 358 c13 -15 14 -62 9
-308 -4 -159 -7 -562 -9 -895 -1 -332 -4 -606 -6 -608 -2 -3 -16 -1 -31 2
l-27 7 7 487 c8 614 27 1332 36 1332 4 0 13 -8 21 -17z m57 -937 c3 -884 3
-886 -18 -886 -20 0 -20 4 -20 563 0 749 10 1230 24 1217 8 -6 12 -257 14
-894z m72 -48 c0 -472 -3 -858 -7 -858 -5 0 -18 3 -30 6 l-23 6 0 881 0 881
30 -29 30 -29 0 -858z m57 810 l23 -21 0 -832 0 -832 -30 5 -30 4 0 849 c0
467 3 849 7 849 4 0 17 -10 30 -22z m71 -71 c11 -13 20 -1613 9 -1624 -3 -3
-16 -2 -28 2 l-22 7 7 607 c3 333 7 699 7 814 0 114 4 207 9 207 4 0 12 -6 18
-13z m2302 -552 c-3 -286 -4 -684 -3 -884 2 -282 0 -367 -10 -373 -9 -6 -9 -8
1 -8 7 0 12 -13 12 -30 0 -28 -3 -30 -35 -30 -31 0 -35 3 -36 28 l-2 27 -4
-27 -4 -28 -796 0 c-569 0 -800 3 -810 11 -10 9 -13 8 -13 -1 0 -10 -58 -12
-287 -6 -229 5 -962 10 -1096 7 -34 -1 -26 -21 7 -21 l24 0 -4 -122 c-2 -68
-7 -221 -10 -341 l-6 -219 -102 7 c-55 4 -104 9 -107 11 -3 2 -5 149 -3 326 2
178 4 367 4 420 l0 98 26 -10 c14 -6 43 -10 65 -10 l39 0 0 -95 c0 -57 4 -95
10 -95 6 0 10 37 10 90 l0 91 659 -1 659 -1 6 -25 c8 -30 26 -32 26 -3 0 19 4
21 38 16 20 -3 62 -8 92 -11 l55 -5 -55 12 c-51 12 -39 14 190 20 135 4 281
11 324 17 44 5 82 8 84 5 3 -2 8 -30 12 -62 l7 -58 2 61 c1 56 3 61 29 71 l27
11 -32 1 -33 1 0 163 c-1 89 -5 263 -10 387 -5 123 -7 226 -6 228 2 2 55 15
117 29 63 14 116 27 118 29 14 13 -18 13 -119 -1 -63 -8 -115 -13 -117 -11 -2
2 -7 34 -11 72 l-7 69 -5 -75 -5 -75 -55 -9 c-30 -5 -178 -33 -329 -62 -150
-30 -280 -54 -287 -54 -12 0 -14 45 -14 251 l0 251 36 -27 c49 -37 56 -23 11
23 l-37 38 108 32 c168 50 381 105 722 187 551 132 905 213 920 212 13 -2 14
-67 10 -522z m-2214 -259 l-4 -721 9 550 c5 303 12 623 15 713 l6 163 25 -23
26 -23 -7 -550 c-3 -302 -6 -639 -6 -748 l0 -198 -32 3 -32 3 3 54 c2 36 -1
51 -8 46 -6 -3 -11 -26 -11 -51 0 -38 -3 -45 -17 -42 -17 3 -18 50 -21 803
l-2 799 30 -29 30 -29 -4 -720z m-2109 659 l110 -50 7 -110 c8 -140 8 -248 0
-362 l-7 -90 -121 32 -121 32 1 149 c1 82 2 218 3 302 0 85 5 152 9 150 5 -1
59 -25 119 -53z m2258 -600 c-3 -286 -8 -593 -10 -683 -3 -92 -2 -161 3 -158
5 3 12 301 16 663 4 361 10 661 13 666 3 5 16 -2 30 -15 l25 -23 -6 -265 c-8
-323 -11 -929 -4 -935 3 -3 8 232 12 522 3 291 9 559 13 596 6 68 6 68 25 49
19 -19 19 -36 12 -691 -6 -577 -9 -671 -21 -666 -8 3 -21 5 -28 5 -10 0 -12
18 -8 83 3 59 2 78 -6 67 -6 -8 -11 -43 -11 -77 0 -61 -1 -63 -25 -63 -17 0
-29 7 -35 23 -7 17 -9 18 -9 5 -1 -19 -27 -24 -50 -9 -14 9 -14 113 5 1139 l7
343 29 -28 29 -27 -6 -521z m-2021 493 l96 -41 2 -216 c2 -119 3 -240 3 -269
0 -28 4 -52 8 -52 5 0 7 119 5 264 l-3 264 35 -15 c19 -8 40 -17 47 -20 9 -3
10 -141 6 -571 -3 -312 -7 -569 -9 -571 -4 -4 -91 9 -604 90 -173 27 -403 63
-510 80 -284 43 -266 36 -179 71 120 47 122 48 117 53 -3 3 -44 -8 -91 -25
-136 -47 -122 -89 -122 355 0 212 1 385 3 385 2 0 12 -5 22 -10 56 -30 1095
-308 1107 -296 2 2 -6 6 -19 9 l-23 6 0 276 c0 151 3 275 7 275 3 0 50 -19
102 -42z m206 -68 c0 -5 -7 -7 -15 -4 -8 4 -15 8 -15 10 0 2 7 4 15 4 8 0 15
-4 15 -10z m76 -267 c-3 -153 -6 -416 -6 -585 0 -296 -1 -308 -19 -308 -17 0
-20 11 -28 108 -4 59 -8 309 -8 555 0 366 2 449 14 456 9 6 10 11 2 15 -23 15
-11 36 20 36 l32 0 -7 -277z m1924 -460 c0 -617 -1 -654 -18 -651 -16 3 -17
39 -18 563 0 686 2 771 22 755 12 -11 14 -113 14 -667z m42 580 c1 -44 2 -45
5 -10 2 20 8 35 14 32 5 -4 9 -122 9 -286 l0 -279 -22 -1 -23 -2 23 -4 22 -4
0 -343 0 -343 -30 5 -30 4 0 624 c0 343 3 630 6 639 12 30 24 14 26 -32z
m-3498 21 c13 -5 14 -9 5 -20 -16 -20 -29 -17 -29 6 0 22 1 23 24 14z m116 -4
c0 -5 -7 -10 -16 -10 -8 0 -12 5 -9 10 3 6 10 10 16 10 5 0 9 -4 9 -10z m-99
-418 c-3 -389 -4 -398 -44 -388 -9 2 -15 1 -12 -4 2 -4 -48 -20 -113 -35 -195
-45 -390 -95 -517 -130 -66 -19 -172 -45 -235 -59 -63 -14 -158 -39 -210 -55
-52 -16 -167 -46 -255 -66 -88 -21 -175 -43 -192 -51 -26 -11 -33 -11 -33 -1
-1 7 -5 6 -13 -5 -7 -9 -24 -18 -37 -20 -19 -2 -25 3 -30 22 -7 25 -7 25 -11
-4 -2 -16 -10 -31 -16 -34 -10 -3 -13 18 -13 82 0 82 1 86 23 87 l22 2 -22 4
c-22 4 -23 9 -23 94 0 71 3 89 14 89 8 0 17 -12 19 -27 3 -24 4 -23 6 8 1 35
2 36 114 89 126 60 278 142 273 147 -1 2 -77 -32 -167 -76 -90 -43 -165 -78
-165 -78 -1 1 1 93 4 204 l5 201 86 58 c47 32 146 101 219 152 74 51 135 92
138 90 6 -7 6 -477 -1 -488 -3 -5 -2 -10 4 -10 5 0 13 5 16 10 10 15 23 12 28
-7 4 -15 5 -15 6 2 1 21 58 51 441 234 69 33 251 125 405 205 154 79 282 142
285 140 2 -3 3 -175 1 -382z m-1133 86 c-2 -120 -1 -218 4 -218 4 0 9 80 9
178 1 97 4 161 8 142 3 -19 5 -104 3 -187 -3 -123 -7 -153 -18 -153 -8 0 -14
-4 -14 -10 0 -5 -6 -10 -12 -10 -10 0 -13 56 -13 245 0 208 2 247 15 255 22
14 23 1 18 -242z m-516 -305 c-3 -188 -7 -212 -33 -213 -4 0 -4 84 -1 188 3
149 8 191 20 205 8 9 16 17 16 17 1 0 0 -89 -2 -197z m5888 157 c0 -23 17 -19
-240 -58 -122 -18 -196 -26 -199 -20 -2 7 -6 6 -10 -1 -4 -5 -45 -18 -91 -28
-71 -15 -85 -21 -86 -38 0 -11 -2 -58 -4 -105 l-3 -85 -7 60 c-4 34 -7 -56 -8
-207 -2 -228 0 -267 12 -262 8 3 17 12 20 20 7 19 76 19 76 0 0 -8 4 -17 9
-20 5 -4 7 3 4 14 -4 17 0 20 23 20 16 0 115 7 219 15 105 8 193 15 198 15 4
0 7 -12 8 -27 1 -26 2 -25 9 7 5 19 8 173 7 342 l-2 308 28 6 c16 3 30 4 33 1
2 -2 9 -116 14 -253 5 -137 12 -295 16 -350 l6 -101 -34 -7 c-18 -3 -170 -8
-338 -11 -168 -3 -315 -8 -326 -10 -14 -3 -24 1 -28 11 -4 9 -3 167 0 350 l7
333 26 5 c14 3 152 24 306 46 154 22 285 42 290 45 6 2 22 4 38 4 21 1 27 -4
27 -19z m-80 -365 l0 -305 -120 -2 c-128 -2 -134 -2 -252 -13 -56 -6 -78 -5
-78 4 0 6 14 11 32 11 55 0 251 21 283 31 22 6 5 8 -57 5 -68 -2 -88 1 -88 11
0 7 6 13 13 14 10 0 10 2 0 6 -9 3 -13 29 -13 79 0 63 3 74 18 75 15 1 15 2 0
6 -13 3 -17 26 -23 140 -6 103 -5 137 5 143 7 4 37 10 68 14 31 4 67 9 80 13
21 5 23 2 20 -18 -2 -20 -10 -25 -48 -30 l-45 -6 47 -1 47 -2 0 -200 0 -200
-32 -2 -32 -1 33 -4 c17 -2 32 -8 32 -14 0 -5 5 -9 10 -9 6 0 10 43 10 110 0
98 2 110 18 111 16 1 16 2 0 6 -16 4 -18 18 -18 109 0 76 3 104 13 105 10 0
10 2 0 6 -7 2 -13 18 -13 33 0 29 -15 49 -22 29 -2 -6 -41 -15 -87 -21 -69 -9
-85 -8 -92 3 -7 11 -9 10 -9 -3 0 -12 -8 -19 -22 -19 l-23 -2 23 -4 c21 -4 22
-7 22 -137 0 -73 3 -181 7 -239 l6 -107 -31 0 -32 0 0 110 c0 98 2 110 18 110
16 1 16 1 -1 11 -16 9 -18 24 -16 117 0 59 -2 124 -6 145 -7 34 -5 37 16 38
26 1 25 1 179 28 58 10 117 19 133 20 l27 1 0 -305z m-370 205 c0 -39 -1 -40
-34 -40 -19 0 -38 5 -41 10 -4 6 8 10 29 10 26 0 36 4 36 16 0 12 -7 14 -27
10 -16 -3 -48 0 -73 8 l-45 14 40 4 c22 3 57 5 78 6 37 2 37 2 37 -38z m-105
-12 c2 -7 5 -126 8 -265 4 -270 5 -263 -45 -263 -21 0 -21 3 -15 137 4 75 7
196 7 270 0 127 1 133 20 133 11 0 22 -6 25 -12z m107 -123 c0 -47 1 -91 2
-97 1 -8 -15 -14 -43 -16 l-44 -3 6 68 c4 37 7 83 7 101 0 30 2 32 35 32 l35
0 2 -85z m-3791 -62 c0 -5 2 -18 3 -30 3 -30 16 -42 17 -17 1 10 1 25 0 32 -3
22 28 25 117 8 369 -70 920 -159 1155 -187 64 -8 93 -15 85 -21 -9 -7 -4 -8
15 -5 32 5 32 5 41 -47 l7 -39 -63 6 c-35 4 -258 29 -496 57 -238 27 -469 53
-513 56 -44 4 -78 9 -75 11 2 2 43 13 91 25 47 11 84 22 81 25 -4 4 -67 -8
-226 -42 -97 -22 -377 -75 -392 -75 -10 0 -18 6 -18 13 0 9 -3 8 -9 -2 -7 -11
-19 -11 -72 1 l-64 15 35 11 35 12 -47 -5 c-25 -2 -52 -6 -60 -7 -8 -2 -14 9
-16 30 -4 40 -22 42 -22 2 0 -16 -5 -30 -12 -30 -6 0 -8 -3 -4 -7 5 -5 -186
-54 -466 -119 -24 -6 -28 -3 -29 17 l-1 24 -7 -25 c-5 -19 -19 -28 -61 -42
-37 -12 -43 -16 -20 -12 19 3 43 8 53 10 13 4 17 -1 17 -23 l0 -29 -105 -1
c-71 -1 -103 2 -98 10 4 6 -2 8 -18 3 -69 -19 -69 -19 -69 0 -1 18 -1 18 -11
2 -12 -22 -59 -24 -59 -3 0 8 -7 15 -15 15 -8 0 -14 -3 -12 -7 1 -5 -1 -9 -6
-10 -17 -6 -27 -2 -27 12 0 8 -4 15 -10 15 -5 0 -10 -7 -10 -15 0 -10 -10 -15
-34 -15 -28 0 -35 4 -39 23 l-4 22 -8 -22 c-5 -15 -15 -23 -31 -23 -41 0 -28
28 19 40 23 6 110 29 192 52 83 22 193 51 245 64 52 13 223 56 380 95 157 39
335 82 395 95 61 13 137 33 170 43 71 23 75 23 76 14z m3799 -73 c0 -5 -12
-11 -27 -11 l-28 -2 28 -4 27 -4 0 -94 c0 -52 -3 -96 -7 -98 -5 -3 -24 -7 -43
-9 l-35 -3 -3 104 c-2 57 -1 109 2 117 6 16 86 20 86 4z m-1590 -64 c0 -23 -2
-23 -47 -14 -73 14 -83 21 -43 28 72 15 90 12 90 -14z m-127 -14 c40 -2 119
-27 127 -40 8 -14 11 -15 19 -3 5 7 14 10 20 6 7 -4 27 -9 44 -12 18 -2 37
-11 44 -19 6 -8 14 -11 17 -6 8 14 57 2 63 -15 4 -9 8 -11 12 -4 5 7 18 7 41
1 80 -22 572 -124 774 -159 33 -6 62 -13 64 -16 3 -3 -215 -5 -484 -6 -269 0
-507 -1 -529 -1 -101 -1 -105 0 -106 30 l0 27 -12 -24 c-10 -21 -16 -23 -69
-19 -32 2 -59 6 -61 9 -2 2 -7 46 -10 97 -6 75 -4 92 7 92 19 0 28 27 10 34
-8 3 -14 15 -14 26 0 17 3 19 18 11 9 -5 20 -9 25 -9z m-63 -2 c0 -5 -4 -10
-9 -10 -5 0 -16 -3 -25 -6 -11 -4 -16 -1 -16 10 0 10 9 16 25 16 14 0 25 -4
25 -10z m-89 -17 c1 -17 2 -17 6 0 2 9 9 17 15 17 6 0 7 -12 1 -32 -4 -18 -7
-261 -6 -540 1 -280 1 -508 -2 -508 -2 0 -10 3 -19 6 -13 5 -16 25 -16 118 0
177 -13 717 -17 712 -9 -9 -13 -470 -5 -636 5 -102 8 -186 6 -188 -1 -2 -49
-7 -105 -11 -61 -5 -85 -9 -59 -11 38 -2 -204 -37 -274 -39 -19 -1 -19 11 -14
472 3 264 1 448 -3 417 -5 -30 -10 -244 -13 -475 -3 -406 -4 -420 -23 -423
-19 -3 -19 6 -16 350 2 194 6 413 9 486 l6 132 57 -5 c31 -2 125 -12 208 -21
84 -9 158 -14 164 -12 6 2 -73 14 -177 27 -104 12 -190 23 -191 24 -5 6 11 97
18 97 4 0 15 -7 23 -16 9 -8 16 -11 16 -5 0 6 9 11 21 11 11 0 17 5 14 10 -3
6 1 10 9 10 9 0 16 -6 16 -12 0 -10 2 -10 8 -1 12 19 63 28 73 12 5 -9 9 -10
9 -2 0 6 24 15 53 19 28 4 59 8 67 10 8 1 35 5 59 8 25 3 47 8 49 11 12 11 32
4 33 -12z m-1400 -49 c156 -19 285 -36 286 -37 1 -1 -3 -148 -9 -327 -7 -252
-4 -727 6 -777 0 -4 -111 -25 -247 -47 -214 -33 -254 -37 -288 -27 l-39 12 0
611 c0 336 -2 609 -4 607 -2 -2 -7 -274 -11 -604 -3 -330 -8 -601 -10 -603 -4
-4 -336 85 -343 92 -3 4 2 6 12 6 10 0 24 7 32 15 19 19 17 19 -36 0 -52 -18
-50 -19 -50 3 0 12 -4 11 -13 -8 -9 -19 -32 -31 -102 -53 l-90 -28 -225 46
c-124 26 -236 50 -249 54 -35 10 -37 27 -4 39 l28 10 -27 1 -27 1 5 416 c3
367 2 415 -11 410 -11 -4 -15 2 -15 28 l0 32 252 57 c139 31 252 55 253 54 0
-1 -3 -76 -6 -167 -4 -91 -7 -309 -7 -485 l1 -320 12 265 c7 146 16 368 20
493 l7 228 42 -7 c58 -9 148 -39 141 -46 -8 -8 -7 -434 2 -738 l8 -255 5 420
5 420 75 -2 75 -1 -77 10 -78 10 0 75 c0 56 3 74 13 70 6 -2 23 -7 37 -11 l25
-7 -25 15 c-24 14 -24 14 25 21 42 6 337 61 341 64 1 1 129 -15 285 -35z
m-3328 14 c-2 -5 -3 -91 -3 -193 0 -178 -1 -185 -20 -185 -19 0 -20 7 -20 196
l0 195 23 -3 c12 -2 21 -6 20 -10z m64 -292 c-4 -160 -7 -425 -7 -589 0 -259
-2 -298 -15 -304 -9 -3 -22 3 -31 13 -13 17 -14 86 -9 564 3 300 8 561 11 581
5 32 9 35 32 31 l25 -5 -6 -291z m66 174 c-2 -63 -6 -330 -9 -592 l-7 -478
-25 0 -25 0 6 463 c4 254 10 522 13 595 7 127 8 133 28 130 20 -3 21 -8 19
-118z m4683 48 c-3 -39 -6 -268 -6 -510 0 -419 -1 -438 -18 -438 -18 0 -19 15
-25 212 -4 116 -7 341 -7 500 l0 289 23 9 c38 15 40 12 33 -62z m-4636 -523
c0 -578 0 -585 -20 -585 -20 0 -20 7 -20 358 0 517 10 812 27 812 11 0 13
-103 13 -585z m58 577 c10 -7 12 -130 10 -583 l-3 -574 -27 -3 -28 -3 0 585
c0 552 1 586 18 586 9 0 23 -4 30 -8z m96 -142 c-1 -74 -2 -332 -3 -572 l-1
-438 -30 0 -30 0 0 576 0 575 33 -3 32 -3 -1 -135z m56 -436 c0 -310 -2 -564
-4 -564 -2 0 -12 -3 -21 -7 -16 -6 -17 31 -13 558 2 310 7 570 11 577 5 7 13
10 18 7 5 -4 9 -233 9 -571z m80 239 c0 -186 -3 -443 -7 -570 l-6 -233 -24 0
-23 0 0 570 0 570 30 0 30 0 0 -337z m85 300 c-3 -23 -14 -618 -15 -820 0 -53
0 -53 -32 -53 l-31 0 6 263 c4 144 7 346 7 450 l0 187 35 0 c32 0 34 -2 30
-27z m65 -223 c-3 -135 -5 -267 -6 -295 0 -27 -2 -119 -2 -202 l-2 -153 -30 0
-31 0 5 193 c3 105 8 308 12 450 l6 258 26 -3 25 -3 -3 -245z m56 242 c8 -5
10 -123 5 -427 -6 -433 -10 -465 -47 -465 -14 0 -15 21 -10 188 3 103 9 302
12 442 3 140 8 258 11 263 5 9 15 9 29 -1z m54 -448 c0 -419 -1 -445 -17 -442
-20 4 -19 -37 -15 541 2 301 4 347 17 347 13 0 15 -56 15 -446z m70 1 l0 -445
-25 0 -25 0 0 445 0 445 25 0 25 0 0 -445z m90 248 c0 -109 -3 -309 -7 -445
l-6 -248 -29 0 -28 0 0 445 0 445 35 0 35 0 0 -197z m52 -163 c-1 -195 -2
-394 -2 -442 0 -81 -2 -88 -20 -88 -19 0 -20 7 -20 173 0 96 3 296 7 446 5
241 8 271 22 269 14 -3 16 -41 13 -358z m78 265 c0 -83 -5 -95 -41 -95 -5 0
-9 42 -9 94 l0 93 25 -5 c24 -4 25 -7 25 -87z m2648 -473 c2 -536 2 -552 -17
-552 -11 0 -21 9 -25 23 -8 30 -8 498 1 825 5 233 8 262 22 260 14 -3 16 -60
19 -556z m208 529 c87 -11 191 -23 231 -27 l72 -7 -6 -486 c-3 -267 -6 -487
-7 -488 -2 -3 -440 -63 -461 -63 -20 0 -20 10 -22 545 -2 515 -1 545 15 545
10 0 90 -9 178 -19z m-2596 -111 c0 -5 -7 -10 -15 -10 -8 0 -15 5 -15 10 0 6
7 10 15 10 8 0 15 -4 15 -10z m-55 -10 c-3 -5 -13 -10 -21 -10 -8 0 -14 5 -14
10 0 6 9 10 21 10 11 0 17 -4 14 -10z m-61 -364 l-7 -356 -26 0 -26 0 3 302
c1 167 5 327 8 356 5 46 8 52 25 47 12 -4 19 -2 19 6 0 7 3 10 6 7 3 -4 2
-166 -2 -362z m-67 102 c-4 -133 -7 -290 -7 -350 l0 -108 -32 0 -31 0 6 233
c4 127 7 270 8 317 1 55 4 76 8 60 7 -21 9 -15 16 33 5 41 12 57 23 57 13 0
14 -28 9 -242z m133 -110 c-1 -456 0 -480 10 -448 4 14 8 199 9 413 1 337 3
387 16 387 13 0 15 -51 15 -399 0 -256 4 -402 10 -406 7 -4 10 132 10 399 l0
406 25 0 25 0 0 -394 c0 -249 4 -397 10 -401 6 -4 11 133 12 392 l3 398 30 0
30 0 -4 -391 c-3 -286 -1 -393 8 -398 8 -5 11 73 12 301 1 377 8 488 29 488
13 0 15 -49 17 -375 1 -206 2 -395 3 -419 0 -24 3 -42 6 -39 3 3 5 140 4 304
0 164 2 349 6 412 7 113 7 113 32 110 l24 -3 -1 -415 c-1 -228 -3 -416 -5
-417 -1 -1 -117 -12 -257 -23 -139 -11 -266 -22 -281 -25 l-28 -5 0 70 c0 41
4 70 10 70 6 0 8 -15 4 -39 -3 -22 -1 -47 5 -57 8 -15 10 -8 11 39 0 57 0 57
30 57 30 0 30 -1 32 -57 l1 -58 6 60 c6 56 8 60 33 63 25 3 27 1 31 -45 3 -44
4 -43 5 15 2 55 5 64 25 72 l22 9 -23 0 c-22 1 -22 3 -18 89 3 48 6 188 7 312
3 279 5 300 30 300 19 0 19 -12 19 -352z m-211 0 c-2 -331 -7 -413 -20 -318
l-6 45 -1 -43 c-2 -30 -6 -42 -14 -40 -16 6 -23 348 -13 555 7 124 8 132 28
136 12 2 24 5 25 6 2 0 3 -153 1 -341z m627 -70 c-4 -227 -8 -413 -9 -414 -1
-2 -15 -6 -31 -10 l-29 -7 6 213 c4 117 7 307 7 422 l0 208 32 0 31 0 -7 -412z
m70 5 c-4 -223 -9 -410 -12 -415 -3 -4 -14 -8 -25 -8 -18 0 -19 10 -19 288 0
158 3 344 7 415 6 127 6 127 31 127 l25 0 -7 -407z m70 315 c-2 -51 -5 -236
-5 -410 l-1 -318 -27 0 -28 0 6 347 c4 192 7 376 8 411 1 59 2 62 26 62 l25 0
-4 -92z m44 60 c0 -18 1 -201 3 -406 2 -204 2 -374 -1 -376 -2 -3 -10 -2 -18
1 -12 4 -14 72 -14 409 0 352 2 404 15 404 10 0 15 -10 15 -32z m46 -100 c-12
-279 -15 -485 -8 -528 5 -29 11 67 16 270 10 394 10 377 19 386 4 4 7 -176 7
-399 l0 -407 -30 0 -30 0 0 405 c0 362 2 405 16 405 14 0 15 -16 10 -132z
m4337 -43 c175 -8 178 -8 173 -29 -3 -12 -6 -29 -6 -38 0 -14 -9 -18 -39 -18
-37 0 -39 2 -46 38 -8 38 -9 37 -19 -11 -6 -27 -9 -28 -69 -28 -34 0 -299 -3
-589 -6 l-528 -5 0 25 c0 13 -3 38 -6 55 l-6 30 478 -3 c264 -2 559 -6 657
-10z m-6224 -355 c-1 -198 -4 -360 -8 -360 -4 0 -13 6 -21 13 -8 7 -7 2 3 -15
23 -37 21 -65 -4 -73 -11 -4 -23 -4 -27 -1 -7 8 -5 91 8 451 12 310 16 345 36
345 13 0 15 -47 13 -360z m8042 278 c0 -46 4 -175 8 -288 5 -113 6 -262 3
-332 -5 -124 -6 -128 -27 -128 -21 0 -22 6 -29 96 -3 52 -5 98 -2 102 3 6 8
214 16 630 0 1 7 2 15 2 12 0 15 -16 16 -82z m-1602 -115 c1 -103 4 -190 6
-193 8 -13 6 -350 -2 -352 -4 -2 -11 148 -14 332 -3 184 -9 350 -13 368 -6 24
-4 32 6 32 11 0 14 -37 17 -187z m71 -184 c0 -347 -1 -370 -17 -367 -16 3 -19
26 -24 262 -4 142 -10 307 -14 367 l-7 109 31 0 31 0 0 -371z m178 365 l22 -6
0 -371 0 -370 -46 7 c-26 3 -66 6 -90 6 l-44 0 0 370 0 370 68 0 c37 0 77 -3
90 -6z m1047 -181 c-4 -96 -3 -263 2 -371 l8 -197 5 375 5 375 112 3 112 3 -6
-403 c-3 -222 -7 -405 -9 -407 -3 -4 -826 38 -831 42 -1 1 1 172 4 379 l6 378
194 0 193 0 1 -223 c1 -122 5 -280 9 -352 5 -94 7 -32 6 222 l-1 352 85 3 c47
2 91 1 99 -1 11 -3 12 -34 6 -178z m-815 -160 c0 -185 2 -334 4 -332 3 4 15
473 16 612 l0 57 95 0 95 0 -1 -212 c-1 -117 -5 -287 -8 -378 l-6 -165 -30 2
c-16 1 -70 2 -120 3 -49 1 -106 4 -125 7 l-35 6 50 18 c68 24 45 23 -50 -1
-43 -11 -80 -20 -82 -20 -1 0 -3 167 -3 370 l0 370 100 0 100 0 0 -337z m-527
105 c4 -83 7 -227 7 -320 l0 -168 -47 0 c-27 0 -77 3 -113 6 l-65 6 3 272 2
271 23 3 c46 6 52 16 12 21 -32 5 -41 11 -43 29 -3 20 0 22 51 22 l54 0 7
-237 c4 -131 9 -247 11 -258 2 -11 4 -36 4 -55 1 -27 4 -32 11 -20 7 9 10 119
9 290 0 151 0 278 0 283 1 4 16 7 34 7 l34 0 6 -152z m-233 122 c0 -21 -12
-22 -220 -24 -148 -1 -165 1 -168 16 -3 16 10 18 130 21 264 6 258 6 258 -13z
m-402 -7 c-4 -20 20 -19 -393 -15 -126 2 -236 3 -244 2 -9 0 -10 -4 -5 -12 5
-7 8 -124 6 -260 l-3 -248 -22 0 c-22 0 -22 2 -15 88 3 48 7 161 7 252 1 91 4
175 7 187 l6 22 330 1 c310 0 329 -1 326 -17z m-297 -39 l246 -6 6 -187 c4
-102 7 -221 7 -264 l0 -78 -47 6 c-55 6 -431 25 -499 25 l-44 0 0 214 c0 117
3 234 6 258 6 46 7 46 43 42 20 -2 147 -6 282 -10z m292 -265 c-1 -144 -4
-263 -6 -266 -3 -2 -8 90 -11 204 -4 114 -8 234 -10 266 -2 47 0 57 13 57 14
0 16 -28 14 -261z m377 -14 l0 -276 -72 5 c-40 3 -121 9 -180 12 l-108 6 0
264 0 264 180 0 179 0 1 -275z m30 -2 c0 -152 -2 -274 -4 -272 -2 2 -7 127
-11 277 -5 195 -4 272 4 272 8 0 11 -82 11 -277z m-5610 -187 l0 -104 -30 -4
c-17 -3 -31 -3 -33 -2 -1 1 -1 50 1 108 l3 106 30 0 29 0 0 -104z m70 97 c0
-10 -42 -53 -52 -53 -4 0 -8 14 -8 30 0 27 3 30 30 30 17 0 30 -3 30 -7z m335
-3 c4 -6 -16 -10 -52 -10 -32 -1 -93 -3 -135 -7 -72 -5 -91 0 -71 20 11 11
251 8 258 -3z m45 0 c0 -5 -7 -10 -15 -10 -8 0 -15 5 -15 10 0 6 7 10 15 10 8
0 15 -4 15 -10z m30 0 c0 -5 -4 -10 -10 -10 -5 0 -10 5 -10 10 0 6 5 10 10 10
6 0 10 -4 10 -10z m70 0 c0 -5 -13 -10 -30 -10 -16 0 -30 5 -30 10 0 6 14 10
30 10 17 0 30 -4 30 -10z m70 0 c0 -5 -11 -10 -24 -10 -14 0 -28 5 -31 10 -4
6 7 10 24 10 17 0 31 -4 31 -10z m-500 -10 c0 -5 -5 -10 -11 -10 -5 0 -7 5 -4
10 3 6 8 10 11 10 2 0 4 -4 4 -10z m8 -102 c2 -43 -1 -78 -6 -78 -5 0 -24 -3
-41 -6 l-31 -6 0 75 c0 81 11 100 55 94 18 -2 20 -11 23 -79z m322 25 c0 -32
-4 -63 -8 -69 -4 -6 -43 -14 -87 -18 -44 -3 -110 -9 -147 -12 l-68 -6 0 81 0
81 155 0 155 0 0 -57z m-428 -50 c3 -35 1 -63 -4 -63 -4 0 -8 33 -7 73 1 84 6
79 11 -10z m4248 42 c0 -8 -6 -15 -12 -16 -10 0 -10 -2 0 -6 6 -2 12 -18 12
-34 0 -22 -5 -29 -20 -29 -18 0 -20 6 -18 50 2 40 6 50 20 50 10 0 18 -7 18
-15z m-67 -2 c-7 -2 -19 -2 -25 0 -7 3 -2 5 12 5 14 0 19 -2 13 -5z m-2833
-13 c0 -5 -4 -10 -9 -10 -6 0 -13 5 -16 10 -3 6 1 10 9 10 9 0 16 -4 16 -10z
m3125 -30 c13 -5 -9 -10 -60 -14 -44 -4 -95 -10 -112 -13 -30 -5 -33 -3 -33
20 l0 24 93 -5 c50 -2 101 -8 112 -12z m-3325 -20 c0 -30 -11 -37 -44 -24 -16
6 -22 35 -9 47 3 4 17 7 30 7 19 0 23 -5 23 -30z m-70 5 c0 -16 -12 -18 -47
-9 -35 10 -27 24 12 24 24 0 35 -5 35 -15z m-137 -7 c2 -7 2 -27 0 -44 -4 -28
-8 -31 -41 -32 -21 0 -113 -7 -207 -16 -561 -50 -761 -66 -940 -75 -197 -10
-200 -9 -222 11 -31 29 -30 58 2 58 18 0 25 -5 25 -20 0 -11 5 -20 10 -20 6 0
10 9 10 20 0 30 40 27 41 -2 l2 -23 4 23 c6 30 63 33 63 2 0 -11 5 -20 10 -20
6 0 10 11 10 25 0 21 5 25 30 25 24 0 30 -4 30 -21 0 -12 4 -17 11 -14 6 4 8
13 5 21 -3 8 -1 14 3 14 5 0 16 3 25 6 11 4 16 0 16 -14 0 -12 5 -24 10 -27 6
-4 10 5 10 19 0 21 5 26 25 26 20 0 25 -5 25 -26 0 -15 4 -23 11 -18 6 3 9 14
6 24 -5 20 11 30 44 30 14 0 19 -8 20 -27 l2 -28 4 28 c4 24 8 27 49 29 24 0
50 1 56 2 7 1 16 -12 19 -29 l7 -30 1 31 1 31 107 6 c58 4 126 7 150 7 40 0
43 -2 44 -27 l1 -28 7 30 6 30 160 10 c88 6 153 13 145 16 -8 4 21 9 65 13 44
4 85 9 90 11 22 8 43 4 48 -7z m5092 -67 c29 -7 29 -7 -17 -19 -60 -15 -58
-16 -58 8 0 21 17 24 75 11z"/>
<path d="M5184 3100 c0 -85 2 -120 3 -77 2 42 2 112 0 155 -1 42 -3 7 -3 -78z"/>
<path d="M5280 4939 c0 -11 5 -17 10 -14 6 3 10 13 10 21 0 8 -4 14 -10 14 -5
0 -10 -9 -10 -21z"/>
<path d="M5282 4835 c-20 -682 -31 -1999 -18 -2013 3 -3 6 154 6 349 0 195 5
631 11 969 6 338 9 651 7 695 l-4 80 -2 -80z"/>
<path d="M3763 4065 c0 -33 2 -45 4 -27 2 18 2 45 0 60 -2 15 -4 0 -4 -33z"/>
<path d="M3763 3965 c0 -22 2 -30 4 -17 2 12 2 30 0 40 -3 9 -5 -1 -4 -23z"/>
<path d="M4003 3890 c0 -47 2 -66 4 -42 2 23 2 61 0 85 -2 23 -4 4 -4 -43z"/>
<path d="M3753 3775 c0 -38 2 -53 4 -32 2 20 2 52 0 70 -2 17 -4 1 -4 -38z"/>
<path d="M3994 3710 c0 -52 1 -74 3 -47 2 26 2 68 0 95 -2 26 -3 4 -3 -48z"/>
<path d="M2882 4135 c0 -16 2 -22 5 -12 2 9 2 23 0 30 -3 6 -5 -1 -5 -18z"/>
<path d="M2661 4014 c0 -11 3 -14 6 -6 3 7 2 16 -1 19 -3 4 -6 -2 -5 -13z"/>
<path d="M5313 2243 c15 -2 37 -2 50 0 12 2 0 4 -28 4 -27 0 -38 -2 -22 -4z"/>
<path d="M4385 3390 c11 -5 27 -9 35 -9 9 0 8 4 -5 9 -11 5 -27 9 -35 9 -9 0
-8 -4 5 -9z"/>
<path d="M4488 3363 c7 -3 16 -2 19 1 4 3 -2 6 -13 5 -11 0 -14 -3 -6 -6z"/>
<path d="M1945 3090 c-39 -26 -25 -26 17 0 18 11 29 20 23 20 -5 0 -23 -9 -40
-20z"/>
<path d="M7107 2843 c18 -2 50 -2 70 0 21 2 7 4 -32 4 -38 0 -55 -2 -38 -4z"/>
<path d="M7168 2813 c12 -2 30 -2 40 0 9 3 -1 5 -23 4 -22 0 -30 -2 -17 -4z"/>
<path d="M2138 2513 c7 -3 16 -2 19 1 4 3 -2 6 -13 5 -11 0 -14 -3 -6 -6z"/>
<path d="M2088 2503 c7 -3 16 -2 19 1 4 3 -2 6 -13 5 -11 0 -14 -3 -6 -6z"/>
<path d="M5053 2523 c9 -2 25 -2 35 0 9 3 1 5 -18 5 -19 0 -27 -2 -17 -5z"/>
<path d="M4763 1643 c9 -2 25 -2 35 0 9 3 1 5 -18 5 -19 0 -27 -2 -17 -5z"/>
<path d="M3213 2453 c9 -2 23 -2 30 0 6 3 -1 5 -18 5 -16 0 -22 -2 -12 -5z"/>
<path d="M3288 2443 c6 -2 18 -2 25 0 6 3 1 5 -13 5 -14 0 -19 -2 -12 -5z"/>
<path d="M3368 2433 c7 -3 16 -2 19 1 4 3 -2 6 -13 5 -11 0 -14 -3 -6 -6z"/>
<path d="M3481 2426 c7 -7 226 -36 262 -35 18 1 -29 9 -103 19 -147 20 -166
22 -159 16z"/>
<path d="M3808 2383 c6 -2 18 -2 25 0 6 3 1 5 -13 5 -14 0 -19 -2 -12 -5z"/>
<path d="M3878 2373 c7 -3 16 -2 19 1 4 3 -2 6 -13 5 -11 0 -14 -3 -6 -6z"/>
<path d="M3258 1543 c7 -3 16 -2 19 1 4 3 -2 6 -13 5 -11 0 -14 -3 -6 -6z"/>
<path d="M3883 1543 c9 -2 23 -2 30 0 6 3 -1 5 -18 5 -16 0 -22 -2 -12 -5z"/>
<path d="M3803 1533 c9 -2 25 -2 35 0 9 3 1 5 -18 5 -19 0 -27 -2 -17 -5z"/>
<path d="M3713 1523 c9 -2 25 -2 35 0 9 3 1 5 -18 5 -19 0 -27 -2 -17 -5z"/>
<path d="M3613 1513 c9 -2 23 -2 30 0 6 3 -1 5 -18 5 -16 0 -22 -2 -12 -5z"/>
<path d="M3548 1503 c7 -3 16 -2 19 1 4 3 -2 6 -13 5 -11 0 -14 -3 -6 -6z"/>
<path d="M4338 2333 c7 -3 16 -2 19 1 4 3 -2 6 -13 5 -11 0 -14 -3 -6 -6z"/>
<path d="M4398 2323 c7 -3 16 -2 19 1 4 3 -2 6 -13 5 -11 0 -14 -3 -6 -6z"/>
<path d="M4453 2313 c9 -2 23 -2 30 0 6 3 -1 5 -18 5 -16 0 -22 -2 -12 -5z"/>
<path d="M4473 1613 c15 -2 37 -2 50 0 12 2 0 4 -28 4 -27 0 -38 -2 -22 -4z"/>
<path d="M4348 1603 c12 -2 32 -2 45 0 12 2 2 4 -23 4 -25 0 -35 -2 -22 -4z"/>
<path d="M4218 1593 c12 -2 30 -2 40 0 9 3 -1 5 -23 4 -22 0 -30 -2 -17 -4z"/>
<path d="M4128 1583 c6 -2 18 -2 25 0 6 3 1 5 -13 5 -14 0 -19 -2 -12 -5z"/>
<path d="M7714 1895 c0 -176 2 -247 3 -157 2 90 2 234 0 320 -1 86 -3 13 -3
-163z"/>
<path d="M7308 1583 c-10 -2 -18 -9 -18 -14 0 -6 7 -6 18 -1 9 5 24 12 32 15
13 5 13 5 0 5 -8 0 -23 -2 -32 -5z"/>
<path d="M2990 4716 c0 -3 9 -10 20 -16 11 -6 20 -8 20 -6 0 3 -9 10 -20 16
-11 6 -20 8 -20 6z"/>
<path d="M2030 4282 c-147 -122 -545 -516 -525 -520 14 -3 16 -27 15 -165 0
-89 -1 -168 0 -174 0 -21 20 -15 20 6 0 23 36 52 56 44 9 -3 14 2 15 13 1 14
3 13 9 -6 8 -24 8 -24 9 6 1 25 13 40 63 81 42 35 65 47 70 40 5 -8 8 -6 8 6
0 9 4 17 9 17 5 0 12 -8 14 -17 3 -10 5 -4 6 13 1 26 13 42 74 92 95 79 199
178 165 157 l-28 -17 -1 83 c-1 46 -4 129 -9 184 l-7 100 51 47 c60 56 51 63
-14 10z m-50 -120 c0 -39 -4 -51 -20 -58 -11 -5 -92 -74 -181 -154 -89 -80
-167 -144 -172 -142 -6 2 -13 -2 -17 -8 -4 -7 -15 -10 -24 -8 -12 2 25 44 126
144 155 152 282 274 286 274 1 0 2 -22 2 -48z m-21 -100 c-13 -9 -55 -43 -94
-75 -63 -53 -62 -50 20 27 50 47 92 80 94 75 2 -6 -7 -18 -20 -27z m5 -243
c-9 -10 -50 -46 -90 -79 l-74 -61 0 114 0 114 88 77 87 76 3 -111 c2 -93 0
-115 -14 -130z m-254 26 c-35 -36 -69 -65 -75 -65 -9 1 124 129 135 130 2 0
-25 -29 -60 -65z m67 13 c-3 -8 -6 -5 -6 6 -1 11 2 17 5 13 3 -3 4 -12 1 -19z
m-17 -107 l0 -109 -62 -50 c-73 -59 -74 -58 -77 68 l-2 76 65 62 c35 34 67 62
70 62 3 0 6 -49 6 -109z m-190 8 c0 -5 5 -7 10 -4 6 4 10 -39 10 -121 0 -105
-3 -131 -17 -146 -9 -10 -20 -18 -25 -18 -4 0 -8 68 -8 150 0 127 2 150 15
150 8 0 15 -5 15 -11z"/>
<path d="M8578 4183 c7 -3 16 -2 19 1 4 3 -2 6 -13 5 -11 0 -14 -3 -6 -6z"/>
<path d="M1714 3458 l-19 -23 23 19 c21 18 27 26 19 26 -2 0 -12 -10 -23 -22z"/>
<path d="M1669 3423 c-13 -16 -12 -17 4 -4 9 7 17 15 17 17 0 8 -8 3 -21 -13z"/>
<path d="M402 2790 c0 -19 2 -27 5 -17 2 9 2 25 0 35 -3 9 -5 1 -5 -18z"/>
<path d="M4970 1530 c-330 -57 -997 -215 -1354 -321 l-99 -29 -294 76 c-162
41 -297 73 -299 71 -3 -3 8 -8 23 -11 15 -4 142 -37 282 -73 220 -58 251 -68
235 -80 -16 -11 -12 -12 26 -7 46 6 72 -1 810 -200 867 -235 1740 -466 2140
-566 261 -65 509 -129 550 -143 41 -13 109 -32 150 -42 41 -10 79 -21 83 -25
4 -4 -33 -25 -82 -46 -50 -21 -91 -42 -91 -46 0 -14 19 -8 121 37 79 35 111
44 138 41 20 -3 28 -3 19 0 -10 3 -18 9 -18 12 0 4 71 38 156 75 124 55 163
68 187 63 27 -6 29 -5 14 6 -15 11 -8 17 60 47 316 141 1264 583 1259 588 -8
8 -1147 -497 -1338 -593 l-47 -24 -153 36 c-84 20 -317 76 -518 125 -288 69
-967 230 -1313 310 -26 6 -50 9 -52 7 -3 -2 116 -32 263 -67 147 -35 587 -141
978 -237 392 -96 719 -174 727 -174 44 0 12 -22 -121 -83 -157 -72 -157 -72
-237 -36 -11 4 -148 40 -305 80 -528 132 -1295 332 -2335 609 -368 98 -735
195 -815 215 -80 21 -149 41 -153 45 -14 13 572 170 943 254 160 36 411 85
538 106 39 7 72 14 72 16 0 7 -42 3 -150 -16z"/>
<path d="M1930 1476 c0 -6 270 -95 545 -180 398 -122 1432 -412 1441 -404 2 3
-108 35 -244 73 -500 137 -1248 359 -1594 471 -140 45 -148 47 -148 40z"/>
<path d="M2755 1360 c-8 -13 5 -13 25 0 13 8 13 10 -2 10 -9 0 -20 -4 -23 -10z"/>
<path d="M2808 1353 c7 -3 16 -2 19 1 4 3 -2 6 -13 5 -11 0 -14 -3 -6 -6z"/>
<path d="M2848 1343 c7 -3 16 -2 19 1 4 3 -2 6 -13 5 -11 0 -14 -3 -6 -6z"/>
<path d="M2888 1333 c7 -3 16 -2 19 1 4 3 -2 6 -13 5 -11 0 -14 -3 -6 -6z"/>
<path d="M303 1290 c0 -25 2 -35 4 -22 2 12 2 32 0 45 -2 12 -4 2 -4 -23z"/>
<path d="M374 1065 c0 -82 2 -115 3 -72 2 43 2 110 0 150 -1 40 -3 5 -3 -78z"/>
<path d="M515 923 c4 -153 9 -280 11 -282 2 -2 4 122 4 277 0 196 -3 282 -11
282 -7 0 -9 -81 -4 -277z"/>
<path d="M574 1080 c0 -69 1 -97 3 -62 2 34 2 90 0 125 -2 34 -3 6 -3 -63z"/>
<path d="M293 1075 c0 -33 2 -45 4 -27 2 18 2 45 0 60 -2 15 -4 0 -4 -33z"/>
<path d="M5310 1020 c-19 -5 -88 -20 -152 -35 -67 -15 -122 -33 -130 -42 -16
-19 -17 -20 152 27 63 18 138 38 165 45 54 14 22 18 -35 5z"/>
<path d="M794 780 c0 -91 2 -128 3 -82 2 45 2 119 0 165 -1 45 -3 8 -3 -83z"/>
<path d="M292 910 c0 -14 2 -19 5 -12 2 6 2 18 0 25 -3 6 -5 1 -5 -13z"/>
<path d="M8560 698 c-201 -110 -527 -284 -724 -386 -198 -102 -354 -188 -348
-190 15 -5 447 216 912 466 252 136 551 311 530 311 -3 0 -169 -90 -370 -201z"/>
<path d="M3931 886 c7 -8 682 -187 686 -182 2 2 -33 14 -79 26 -46 12 -198 53
-338 91 -243 66 -279 75 -269 65z"/>
<path d="M5268 883 c7 -3 16 -2 19 1 4 3 -2 6 -13 5 -11 0 -14 -3 -6 -6z"/>
<path d="M5308 873 c7 -3 16 -2 19 1 4 3 -2 6 -13 5 -11 0 -14 -3 -6 -6z"/>
<path d="M5360 860 c14 -4 34 -8 45 -8 16 0 15 2 -5 8 -14 4 -34 8 -45 8 -16
0 -15 -2 5 -8z"/>
<path d="M5450 840 c14 -4 34 -8 45 -8 16 0 15 2 -5 8 -14 4 -34 8 -45 8 -16
0 -15 -2 5 -8z"/>
<path d="M5528 823 c7 -3 16 -2 19 1 4 3 -2 6 -13 5 -11 0 -14 -3 -6 -6z"/>
<path d="M8825 747 c-112 -54 -445 -244 -671 -384 -115 -71 -241 -149 -281
-174 -40 -24 -73 -48 -73 -52 0 -11 -3 -13 315 185 259 161 479 289 682 395
126 66 144 85 28 30z"/>
<path d="M4638 693 c7 -3 16 -2 19 1 4 3 -2 6 -13 5 -11 0 -14 -3 -6 -6z"/>
<path d="M4678 683 c7 -3 16 -2 19 1 4 3 -2 6 -13 5 -11 0 -14 -3 -6 -6z"/>
<path d="M4725 670 c11 -5 27 -9 35 -9 9 0 8 4 -5 9 -11 5 -27 9 -35 9 -9 0
-8 -4 5 -9z"/>
<path d="M4788 653 c7 -3 16 -2 19 1 4 3 -2 6 -13 5 -11 0 -14 -3 -6 -6z"/>
<path d="M4835 640 c11 -5 27 -9 35 -9 9 0 8 4 -5 9 -11 5 -27 9 -35 9 -9 0
-8 -4 5 -9z"/>
<path d="M4898 623 c7 -3 16 -2 19 1 4 3 -2 6 -13 5 -11 0 -14 -3 -6 -6z"/>
<path d="M4938 613 c7 -3 16 -2 19 1 4 3 -2 6 -13 5 -11 0 -14 -3 -6 -6z"/>
<path d="M4985 600 c11 -5 27 -9 35 -9 9 0 8 4 -5 9 -11 5 -27 9 -35 9 -9 0
-8 -4 5 -9z"/>
<path d="M5078 573 c7 -3 16 -2 19 1 4 3 -2 6 -13 5 -11 0 -14 -3 -6 -6z"/>
<path d="M5118 563 c7 -3 16 -2 19 1 4 3 -2 6 -13 5 -11 0 -14 -3 -6 -6z"/>
<path d="M5165 550 c11 -5 27 -9 35 -9 9 0 8 4 -5 9 -11 5 -27 9 -35 9 -9 0
-8 -4 5 -9z"/>
<path d="M5221 536 c2 -2 85 -26 184 -54 99 -27 383 -106 630 -175 591 -165
646 -179 651 -174 2 2 -24 12 -58 21 -501 140 -1396 386 -1403 386 -5 0 -6 -2
-4 -4z"/>
<path d="M6708 123 c7 -3 16 -2 19 1 4 3 -2 6 -13 5 -11 0 -14 -3 -6 -6z"/>
<path d="M6778 103 c7 -3 16 -2 19 1 4 3 -2 6 -13 5 -11 0 -14 -3 -6 -6z"/>
<path d="M6818 93 c7 -3 16 -2 19 1 4 3 -2 6 -13 5 -11 0 -14 -3 -6 -6z"/>
</g>
</svg>
